<?xml version="1.0" encoding="UTF-8" standalone="no"?>
<svg
   xmlns:dc="http://purl.org/dc/elements/1.1/"
   xmlns:cc="http://creativecommons.org/ns#"
   xmlns:rdf="http://www.w3.org/1999/02/22-rdf-syntax-ns#"
   xmlns:svg="http://www.w3.org/2000/svg"
   xmlns="http://www.w3.org/2000/svg"
   viewBox="0 0 200 127.0463"
   version="1.1"
   id="svg2"
   height="127.0463"
   width="200">
  <defs
     id="defs4">
    <clipPath
       clipPathUnits="userSpaceOnUse"
       id="clipPath4157">
      <path
         d="M 0,792 612,792 612,0 0,0 0,792 Z"
         id="path4159" />
    </clipPath>
  </defs>
  <metadata
     id="metadata7">
    <rdf:RDF>
      <cc:Work
         rdf:about="">
        <dc:format>image/svg+xml</dc:format>
        <dc:type
           rdf:resource="http://purl.org/dc/dcmitype/StillImage" />
        <dc:title></dc:title>
      </cc:Work>
    </rdf:RDF>
  </metadata>
  <g
     transform="translate(-173.57143,-471.0721)"
     id="layer1">
    <g
       id="g4145"
       transform="matrix(0.92592594,0,0,-0.92592594,-10.609133,900.82766)">
      <path
         d="m 414.915,326.926 -216,0 0,137.21 216,0 0,-137.21 z"
         style="fill:#ffffff;fill-opacity:1;fill-rule:nonzero;stroke:none"
         id="path4147" />
      <path
         d="m 202.512,349.221 208.802,0 0,-18.72 -208.802,0 0,18.72 z"
         style="fill:#f7b600;fill-opacity:1;fill-rule:nonzero;stroke:none"
         id="path4149" />
      <path
         d="m 202.512,441.817 208.802,0 0,18.72 -208.802,0 0,-18.72 z"
         style="fill:#1a1f71;fill-opacity:1;fill-rule:nonzero;stroke:none"
         id="path4151" />
      <g
         id="g4153">
        <g
           id="g4155"
           clip-path="url(#clipPath4157)">
          <g
             id="g4161"
             transform="translate(305.1123,421.1924)">
            <path
               d="m 0,0 -11.006,-51.455 -13.312,0 L -13.311,0 0,0 Z m 56.004,-33.226 7.008,19.324 4.031,-19.324 -11.039,0 z m 14.859,-18.229 12.309,0 L 72.418,0 61.063,0 c -2.559,0 -4.715,-1.484 -5.67,-3.772 l -19.975,-47.683 13.98,0 2.776,7.684 17.076,0 1.613,-7.684 z m -34.752,16.799 c 0.059,13.579 -18.771,14.332 -18.646,20.399 0.041,1.844 1.799,3.808 5.644,4.31 1.907,0.246 7.166,0.444 13.129,-2.303 L 38.57,-1.334 C 35.367,-0.176 31.246,0.94 26.119,0.94 12.959,0.94 3.701,-6.05 3.627,-16.068 c -0.084,-7.408 6.613,-11.538 11.648,-14.005 5.192,-2.522 6.932,-4.14 6.907,-6.393 -0.036,-3.452 -4.141,-4.98 -7.961,-5.038 -6.698,-0.104 -10.578,1.81 -13.672,3.252 l -2.416,-11.28 c 3.115,-1.426 8.855,-2.667 14.799,-2.731 13.99,0 23.138,6.909 23.179,17.607 M -19.021,0 -40.59,-51.455 l -14.07,0 -10.615,41.065 c -0.643,2.525 -1.204,3.453 -3.161,4.52 -3.201,1.739 -8.486,3.365 -13.132,4.377 L -81.254,0 -58.602,0 c 2.885,0 5.481,-1.92 6.141,-5.243 L -46.854,-35.021 -33.006,0 -19.021,0 Z"
               style="fill:#1a1f71;fill-opacity:1;fill-rule:nonzero;stroke:none"
               id="path4163" />
          </g>
        </g>
      </g>
    </g>
  </g>
</svg>
